<svg width="3847" height="1929" viewBox="0 0 3847 1929" fill="none" xmlns="http://www.w3.org/2000/svg">
<g opacity="0.5" filter="url(#filter0_dd_1_1411)">
<mask id="mask0_1_1411" style="mask-type:alpha" maskUnits="userSpaceOnUse" x="4" y="0" width="3839" height="4838">
<path d="M3843 0H4V4837.95H3843V0Z" fill="#CADB7F"/>
</mask>
<g mask="url(#mask0_1_1411)">
<path d="M902.778 571.669C914.675 562.703 854.458 438.644 835.057 399.669C868.918 373.686 908.086 346.788 951.282 320.439C971.415 359.414 1029.62 468.652 1043.9 457.124C1058.17 445.414 1023.21 326.478 1010.77 285.673C1021.38 279.635 1032.36 273.78 1043.35 267.741C1060.55 311.29 1116.56 450.171 1128.27 436.997C1139.99 423.822 1089.47 292.443 1073.36 252.005C1114.18 231.146 1156.64 211.018 1200.39 192.354C1214.3 223.277 1267.01 335.809 1287.33 318.792C1307.46 302.141 1278.91 195.282 1270.12 164.175C1279.46 160.516 1288.79 157.222 1298.31 153.745C1310.57 185.401 1354.31 295.188 1367.31 282.929C1379.94 271.035 1356.15 170.945 1347.73 136.728C1386.53 123.92 1425.51 112.758 1464.13 103.426C1475.85 137.094 1506.6 221.265 1518.13 215.226C1529.66 209.188 1504.58 127.579 1494.52 96.473C1506.05 93.9113 1517.76 91.3496 1529.11 89.3369C1536.25 123.188 1554.73 202.052 1571.02 190.707C1586.95 179.545 1578.71 111.843 1574.13 82.2007C1577.43 81.6517 1580.91 81.1028 1584.2 80.5539C1629.23 74.6985 1675.72 71.222 1721.84 71.9539C1723.3 93.3624 1727.33 133.618 1737.03 130.507C1746.55 127.579 1751.49 91.7156 1753.32 73.0517C1835.69 77.9922 1915.67 97.7539 1983.02 143.499C1903.22 172.775 1875.4 221.814 1842.82 279.818C1812.99 263.716 1745.09 228.95 1735.75 242.307C1725.87 256.214 1789.38 308.546 1814.09 328.124C1791.76 362.89 1762.47 399.303 1730.44 434.069C1696.22 407.354 1588.96 326.112 1570.66 341.116C1552.35 355.937 1645.7 454.38 1677.91 487.499C1653.94 510.188 1630.14 531.231 1607.81 548.614C1596.1 557.763 1585.12 566.18 1574.32 574.414C1539.91 543.308 1434.12 449.256 1422.22 456.21C1410.14 463.163 1515.56 564.35 1547.6 594.725C1534.42 604.606 1521.6 614.12 1509.34 623.086C1483.53 596.005 1393.85 504.516 1371.52 518.605C1350.11 531.963 1424.6 628.942 1452.42 663.525C1421.3 685.116 1390.56 705.61 1356.51 728.299C1323.57 698.657 1226.19 612.84 1212.47 621.806C1198.19 631.137 1297.58 722.261 1326.31 748.061C1314.23 755.929 1302.15 763.431 1290.07 770.75C1274.88 752.635 1211.55 679.444 1196.73 686.763C1183.36 693.533 1233.33 763.431 1254.2 791.793C1218.14 812.47 1182.08 831.133 1146.58 847.967C1110.7 813.567 1026.69 736.35 1007.84 745.133C988.986 754.099 1053.78 839.916 1082.51 876.329C1067.14 882.733 1052.13 888.589 1037.12 894.261C1017.36 864.618 964.094 787.767 946.34 790.878C928.586 793.989 979.468 875.597 1000.15 907.618C818.584 969.282 667.218 974.223 608.831 922.44C516.95 840.831 536.9 740.376 596.751 646.142C615.969 662.244 652.576 690.788 659.165 680.908C665.571 671.21 641.411 627.844 626.768 603.325C635.92 591.431 645.621 579.72 655.504 568.193C673.258 595.456 739.149 695.363 749.582 682.006C760.015 668.648 706.387 560.508 690.646 529.767C711.695 507.993 733.292 487.316 754.341 468.286C768.251 490.427 813.826 560.874 823.16 553.371C831.946 546.235 796.438 472.495 782.161 443.584C790.215 436.631 797.902 430.044 805.406 423.639C806.321 422.907 807.419 421.993 808.335 421.261C827.187 458.222 891.065 580.635 903.145 571.486L902.778 571.669Z" fill="#76AB9F"/>
<path d="M1736.67 130.506C1746.18 127.579 1751.12 91.7147 1752.95 73.0509C1835.32 77.9913 1915.3 97.753 1982.66 143.498C1656.31 133.617 1262.07 471.579 1111.07 585.941C980.383 684.932 677.65 865.532 598.215 912.558C518.231 832.779 538.547 736.532 596.202 646.141C615.42 662.243 652.026 690.788 658.615 680.907C665.021 671.209 640.861 627.843 626.219 603.324C635.37 591.43 645.071 579.719 654.955 568.192C672.709 595.456 738.6 695.362 749.032 682.005C759.465 668.647 705.837 560.507 690.096 529.766C711.145 507.992 732.742 487.315 753.791 468.285C767.701 490.426 813.276 560.873 822.61 553.37C831.396 546.234 795.888 472.494 781.612 443.583C789.665 436.63 797.352 430.043 804.857 423.638C805.772 422.907 806.87 421.992 807.785 421.26C826.637 458.221 890.515 580.634 902.595 571.485C914.492 562.519 854.275 438.46 834.874 399.485C868.734 373.502 907.903 346.604 951.098 320.255C971.231 359.23 1029.43 468.468 1043.71 456.941C1057.99 445.23 1023.03 326.294 1010.58 285.489C1021.2 279.451 1032.18 273.596 1043.16 267.557C1060.37 311.106 1116.37 449.987 1128.09 436.813C1139.8 423.638 1089.29 292.26 1073.18 251.821C1114 230.962 1156.46 210.834 1200.2 192.17C1214.11 223.094 1266.83 335.626 1287.14 318.609C1307.28 301.957 1278.72 195.098 1269.94 163.991C1279.27 160.332 1288.61 157.038 1298.12 153.562C1310.39 185.217 1354.13 295.004 1367.13 282.745C1379.76 270.851 1355.96 170.762 1347.54 136.545C1386.34 123.736 1425.33 112.574 1463.95 103.242C1475.66 136.911 1506.41 221.081 1517.94 215.043C1529.47 209.004 1504.4 127.396 1494.33 96.2892C1505.86 93.7275 1517.58 91.1658 1528.93 89.153C1536.06 123.004 1554.55 201.868 1570.84 190.523C1586.76 179.362 1578.53 111.659 1573.95 82.0168C1577.25 81.4679 1580.72 80.919 1584.02 80.37C1629.04 74.5147 1675.53 71.0381 1721.66 71.77C1723.12 93.1786 1727.15 133.434 1736.85 130.323L1736.67 130.506Z" fill="#609790"/>
<path d="M1840.99 161.978C1840.99 161.978 1832.94 163.442 1817.93 166.369C1803.47 170.029 1781.87 175.701 1755.52 186.131C1728.98 196.012 1697.5 210.467 1662.17 228.582C1626.85 246.697 1587.68 268.471 1545.95 294.271C1462.49 345.506 1367.86 409.914 1269.39 483.106C1219.79 519.336 1168.36 556.846 1116.19 594.906C1063.85 632.965 1010.4 670.842 956.772 708.719C902.961 746.229 848.967 783.74 795.156 819.604C768.434 837.902 741.528 855.285 714.806 872.668C688.266 890.051 661.91 906.885 635.554 923.17C609.563 939.638 583.573 955.374 557.949 970.561C532.507 985.932 507.249 1000.39 482.54 1014.11C433.122 1041.92 385.351 1066.63 340.508 1087.85C295.666 1109.08 253.569 1126.83 215.865 1141.46C177.977 1155.74 144.666 1167.63 116.845 1175.68C89.2074 1184.65 67.0607 1190.32 52.0522 1194.16C37.0438 1198.19 28.9902 1200.38 28.9902 1200.38C18.3745 1203.13 7.57588 1196.91 4.64742 1186.29C1.90193 1175.68 8.12471 1164.89 18.7406 1161.96L19.4729 1161.77C19.4729 1161.77 27.3431 1159.76 41.9856 1155.92C56.6279 1152.08 78.2255 1146.59 105.131 1137.99C132.403 1130.12 164.799 1118.59 201.771 1104.87C238.56 1090.78 279.742 1073.4 323.852 1052.72C367.78 1031.86 415.185 1008.44 464.237 981.357C488.763 968 514.021 954.093 539.28 939.089C564.721 924.451 590.711 909.081 616.701 892.978C642.875 877.059 669.414 860.774 695.954 843.757C722.676 826.923 749.582 809.723 776.304 791.974C830.298 756.842 884.475 720.063 938.469 683.102C992.463 645.957 1046.27 608.629 1098.8 571.302C1151.33 533.791 1203.13 497.012 1253.1 461.331C1353.4 389.786 1449.31 325.927 1534.97 276.522C1577.61 251.637 1617.88 230.778 1654.12 213.395C1690.36 195.829 1723.12 182.837 1750.58 173.688C1777.85 164.173 1800.36 159.233 1815.73 155.939C1830.93 153.744 1838.98 152.463 1838.98 152.463C1841.73 152.097 1844.1 153.927 1844.65 156.671C1845.02 159.233 1843.19 161.795 1840.63 162.161L1840.99 161.978Z" fill="#569188"/>
<path d="M279.404 470.699C323.515 485.52 380.254 573.167 396.544 527.057C410.271 488.265 225.959 424.222 227.241 395.678C228.522 367.133 292.583 270.52 310.52 273.814C328.457 277.107 337.242 319.376 385.013 342.98C441.569 370.793 469.024 442.703 487.327 422.759C505.63 402.814 476.345 370.61 450.355 342.431C426.012 316.082 347.675 239.78 360.487 220.75C373.299 201.72 451.819 148.107 465.18 152.133C478.541 156.158 498.126 193.12 514.965 216.358C535.647 244.903 528.143 311.873 553.584 304.92C579.025 297.967 564.017 261.737 552.669 234.473C542.053 209.039 501.054 145.912 516.795 129.626C532.535 113.341 605.199 95.0435 616.73 98.886C628.26 102.912 624.234 188.546 638.876 177.201C652.055 166.954 638.876 127.431 637.412 94.6775C672.737 88.2732 702.937 86.4434 722.338 90.286C748.329 95.4094 778.712 126.15 807.996 167.869C783.287 175.005 712.088 198.061 709.709 224.044C706.964 252.954 814.769 190.01 829.777 201.171C844.786 212.333 876.084 263.75 877.914 292.661C878.829 306.75 842.406 330.903 794.635 342.797C744.485 355.239 682.804 355.971 671.456 383.418C648.577 439.044 765.167 374.635 830.326 356.337C862.356 347.371 890.543 340.235 902.257 353.044C913.971 365.852 914.703 391.469 917.998 407.571C921.842 425.869 928.797 469.052 920.194 486.984C911.592 504.916 843.688 511.504 778.163 512.601C684.817 514.248 642.72 476.737 621.854 503.086C600.989 529.435 694.517 575.546 760.774 572.984C815.135 570.789 904.82 549.197 907.016 569.142C909.212 589.087 886.333 679.478 851.192 713.878C816.05 748.278 626.247 600.797 609.225 630.44C591.105 662.278 697.08 696.678 736.248 722.844C762.605 740.41 796.649 762.002 802.689 778.653C808.729 795.304 751.257 835.193 722.887 835.559C694.518 835.742 599.342 714.244 568.409 741.325C533.268 771.882 615.448 803.355 640.89 826.227C651.322 835.742 659.192 847.453 664.683 857.882C644.733 863.189 624.417 866.483 603.917 867.031C512.219 868.861 441.02 779.202 441.02 779.202C441.02 779.202 367.625 793.474 316.376 772.248C287.457 760.355 242.249 726.504 211.317 674.721C226.692 673.806 242.981 670.146 258.905 665.938C295.511 656.057 357.741 669.231 342.184 640.138C327.541 612.874 203.08 625.316 182.032 599.516C177.456 593.844 179.104 583.78 178.371 575.546C174.528 533.461 191.366 441.605 207.107 437.031C225.593 431.542 232.182 454.78 279.404 470.516L279.404 470.699Z" fill="#76AB9F"/>
<path d="M211.5 675.087C226.874 674.173 243.164 670.513 259.088 666.304C295.694 656.424 357.924 669.598 342.366 640.504C327.724 613.241 203.263 625.683 182.215 599.883C177.639 594.211 179.286 584.147 178.554 575.913C174.71 533.828 191.549 441.972 207.29 437.398C225.776 431.908 232.365 455.147 279.587 470.883C323.697 485.704 380.437 573.351 396.727 527.24C410.454 488.449 226.142 424.406 227.423 395.862C228.704 367.317 292.765 270.704 310.702 273.998C328.639 277.291 337.425 319.559 385.196 343.164C441.752 370.976 469.207 442.887 487.51 422.943C505.813 402.998 476.528 370.794 450.538 342.615C426.195 316.266 347.857 239.964 360.669 220.934C373.482 201.904 452.002 148.291 465.363 152.317C478.724 156.342 498.309 193.304 515.147 216.542C535.83 245.087 528.326 312.057 553.767 305.104C579.208 298.151 564.2 261.921 552.852 234.657C542.236 209.223 501.237 146.095 516.978 129.81C532.718 113.708 605.381 95.2273 616.912 99.0698C628.443 102.912 624.417 188.73 639.059 177.385C652.237 167.138 639.059 127.615 637.595 94.8613C672.92 88.4571 703.12 86.6273 722.521 90.4698C728.378 91.5677 734.601 94.3124 740.824 97.972C673.652 195.5 586.529 395.679 550.472 488.815C512.951 585.977 513.866 613.79 441.569 779.751C441.569 779.751 368.174 794.024 316.925 772.798C288.006 760.905 242.798 727.054 211.866 675.27L211.5 675.087Z" fill="#609790"/>
<path d="M724.351 133.652C724.351 133.652 690.124 192.022 647.478 284.427C626.063 330.537 602.818 385.065 580.489 444.35C558.525 503.635 536.195 568.41 511.852 631.903C499.772 663.742 487.143 695.58 474.331 726.687C461.519 757.793 448.157 788.168 434.796 817.444C421.252 846.538 407.708 874.533 394.163 900.699C387.208 913.691 380.436 926.317 373.847 938.576C366.892 950.653 360.12 962.363 353.714 973.525C340.169 995.666 327.723 1015.79 315.46 1032.99C303.746 1050.56 292.032 1065.01 282.881 1077.09C273.546 1089.17 265.127 1097.95 260.002 1104.17C254.694 1110.39 251.765 1113.69 251.765 1113.69C244.993 1121.56 233.096 1122.29 225.226 1115.52C217.356 1108.75 216.624 1096.85 223.396 1088.98L224.311 1088.07C224.311 1088.07 227.057 1084.96 232.181 1079.29C237.123 1073.43 245.177 1065.38 254.145 1054.04C263.113 1042.69 274.461 1029.15 285.992 1012.32C298.072 996.032 310.518 976.636 323.88 955.41C330.286 944.614 337.058 933.453 344.013 921.742C350.602 909.848 357.557 897.589 364.512 884.963C378.24 859.529 391.967 832.265 405.694 803.721C419.239 775.176 432.966 745.35 446.144 714.793C459.322 684.235 472.317 652.946 484.947 621.474C510.571 558.529 532.901 494.852 557.061 435.201C581.221 375.733 606.113 321.388 628.809 275.461C674.2 183.605 710.257 125.235 710.257 125.235C712.637 121.392 717.761 120.111 721.605 122.49C725.449 124.869 726.73 129.809 724.351 133.652Z" fill="#569188"/>
<path d="M3632.71 386.713L3641.86 380.675C3663.46 412.879 3682.49 434.287 3698.6 443.985L3692.92 453.317C3675.35 442.704 3655.04 420.381 3632.71 386.713Z" fill="#569188"/>
<path d="M3632.71 538.951C3634.17 536.024 3636 532.547 3638.01 528.704C3645.88 514.066 3656.5 494.122 3657.05 476.007L3668.03 476.373C3667.3 497.049 3655.95 518.275 3647.71 533.828C3645.7 537.487 3644.05 540.781 3642.59 543.709L3632.71 538.951Z" fill="#569188"/>
<path d="M3581.46 397.143C3595.37 368.049 3612.57 325.415 3602.32 291.381L3612.94 288.27C3624.29 325.964 3606.17 371.342 3591.34 401.9L3581.46 397.143Z" fill="#569188"/>
<path d="M3584.2 240.33L3592.62 233.377C3618.61 265.032 3658.51 290.283 3673.34 299.798C3676.27 301.628 3678.28 302.909 3679.38 303.824L3672.97 312.79C3671.87 312.058 3670.04 310.777 3667.3 309.13C3651.92 299.432 3611.11 273.632 3583.84 240.513L3584.2 240.33Z" fill="#569188"/>
<path d="M3524.72 258.08C3542.84 241.977 3564.44 205.931 3564.44 185.071L3564.44 184.705L3575.42 184.705C3575.42 184.705 3575.42 184.705 3575.42 185.071C3575.42 211.42 3550.16 250.029 3532.04 266.131L3524.72 257.897L3524.72 258.08Z" fill="#569188"/>
<path d="M3514.65 55.3385L3523.44 48.7512C3544.49 77.4789 3587.5 99.0705 3600.31 105.109L3595.73 114.99C3582.37 108.768 3537.35 86.0789 3514.65 55.3385Z" fill="#569188"/>
<path d="M3484.63 102.364C3486.1 94.8619 3488.29 87.5427 3490.49 79.6747C3496.17 60.0959 3502.02 39.7853 3497.45 16.364L3508.25 14.1682C3513.37 40.1512 3506.96 62.6576 3501.11 82.6023C3498.91 90.2874 3496.9 97.4236 3495.43 104.377L3484.63 102.364Z" fill="#569188"/>
<path d="M3373.35 -280.245L3383.42 -284.454C3397.88 -249.871 3413.44 -213.092 3429.73 -174.849C3539.91 84.6148 3676.82 407.756 3700.43 650.386L3689.45 651.483C3666.02 410.317 3529.48 88.2744 3419.66 -170.641C3403.37 -208.883 3387.81 -245.662 3373.35 -280.245Z" fill="#569188"/>
<path d="M3855.09 312.424C3850.51 318.828 3808.05 300.165 3734.47 258.445C3667.67 220.752 3615.32 169.335 3583.84 99.4368C3649.18 114.441 3699.51 152.684 3752.77 196.782C3802.01 237.586 3859.66 306.02 3855.27 312.424L3855.09 312.424Z" fill="#609790"/>
<path d="M3498.36 708.756C3491.59 707.475 3493.42 634.284 3504.95 552.126C3515.38 477.654 3542.29 438.13 3590.61 381.224C3598.66 444.901 3582.56 505.284 3562.42 570.607C3543.94 630.99 3505.13 710.22 3498.36 708.939L3498.36 708.756Z" fill="#76AB9F"/>
<path d="M3674.25 70.3424C3640.58 56.8019 3558.58 11.4232 3550.34 -26.2705C3596.28 -54.0833 3655.95 -8.15558 3691.64 18.9253C3737.03 53.3253 3802.93 75.6488 3844.29 114.074C3795.05 116.087 3718.55 88.0913 3674.25 70.3424Z" fill="#76AB9F"/>
<path d="M3759.55 571.888C3732.64 547.368 3672.06 476.007 3677.73 437.764C3730.44 427.883 3770.16 491.926 3793.96 529.802C3824.34 577.926 3878.15 622.207 3903.23 672.709C3856.55 657.339 3794.69 604.092 3759.55 571.888Z" fill="#76AB9F"/>
<path d="M3740.33 753.403C3739.78 713.513 3712.14 605.739 3688.35 597.322C3672.24 609.398 3670.23 678.93 3678.46 737.849C3686.7 796.037 3687.25 874.718 3712.14 926.318C3735.2 870.692 3741.24 805.918 3740.33 753.403Z" fill="#609790"/>
<path d="M3402.64 228.069C3410.69 189.278 3454.25 92.6648 3493.97 88.4563C3533.5 148.107 3485 217.639 3462.49 256.797C3433.75 306.567 3422.41 382.869 3388.54 427.15C3376.65 367.499 3392.21 279.303 3402.82 228.252L3402.64 228.069Z" fill="#609790"/>
<path d="M3470.73 394.764C3450.59 418.185 3424.05 440.508 3403.37 464.479C3385.98 484.423 3362.37 518.823 3335.65 523.947C3349.19 480.032 3374.45 424.406 3397.7 383.785C3428.81 329.257 3482.26 281.317 3535.88 247.649C3526.37 300.164 3508.8 350.666 3470.73 394.947L3470.73 394.764Z" fill="#76AB9F"/>
<path d="M3426.98 -52.6184C3426.07 3.00718 3412.16 58.2668 3389.28 110.782C3377.01 138.96 3360.17 165.675 3349.38 194.769C3342.42 213.616 3339.31 235.756 3328.88 252.224C3303.98 142.071 3355.42 24.7817 3426.98 -52.6184Z" fill="#76AB9F"/>
<path d="M3646.07 523.947C3644.24 579.573 3629.23 634.466 3605.44 686.615C3592.62 714.611 3575.42 740.96 3564.07 769.871C3556.75 788.717 3553.27 810.675 3542.66 826.96C3519.78 716.441 3573.22 600.066 3646.07 523.947Z" fill="#609790"/>
<path d="M3661.81 300.895C3720.01 309.495 3775.65 331.636 3827.27 362.559C3854.91 379.21 3880.16 400.253 3909.08 415.44C3927.75 425.321 3950.45 431.542 3966.19 444.534C3847.04 455.146 3737.95 378.295 3661.81 300.895Z" fill="#76AB9F"/>
<path d="M2084.82 491.743C2062.3 477.105 2019.66 444.718 2032.29 425.139C2045.1 405.56 2090.49 440.143 2099.83 462.466C2093.42 440.509 2075.3 380.858 2096.9 373.539C2118.49 366.22 2129.29 406.475 2131.12 431.726C2139.18 407.756 2175.05 385.066 2190.06 396.96C2203.42 407.573 2179.26 454.598 2157.66 470.518C2170.48 460.637 2229.78 459.905 2236 477.471C2246.8 507.662 2190.97 515.347 2170.84 508.028C2185.12 514.433 2207.63 544.075 2202.32 559.628C2197.01 575.182 2155.47 539.318 2146.68 528.705C2154.55 545.722 2157.3 598.786 2134.97 602.262C2112.64 605.739 2112.82 549.016 2118.68 531.998C2112.27 544.258 2082.99 597.871 2060.11 588.356C2037.23 579.024 2074.2 523.216 2083.54 511.871C2070.91 518.641 2018.01 538.403 2010.87 521.752C2003.92 505.101 2068.53 482.045 2084.63 491.743L2084.82 491.743Z" fill="#EBDFE1"/>
<path d="M2096.71 491.742C2097.63 506.747 2110.44 517.725 2124.9 516.262C2139.36 514.798 2150.89 505.466 2149.98 490.461C2149.06 475.457 2139.18 468.87 2124.9 466.674C2111.36 464.661 2095.8 476.738 2096.71 491.742Z" fill="#FFA64D"/>
<path d="M3799.26 1607.37C3800.18 1605.17 3884.92 1386.51 3845.39 1096.86L3862.23 1094.48C3902.31 1388.89 3815.92 1611.39 3815 1613.59L3799.08 1607.37L3799.26 1607.37Z" fill="#76AB9F"/>
<path d="M3812.81 1604.81C3778.03 1593.28 3657.05 1660.8 3681.39 1699.59C3705.55 1738.38 3739.05 1712.76 3739.05 1712.76C3739.05 1712.76 3723.49 1758.14 3760.83 1771.32C3797.98 1784.49 3808.78 1735.09 3808.78 1735.09C3808.78 1735.09 3816.83 1769.49 3849.6 1766.93C3882.36 1764.36 3869 1623.47 3812.81 1604.99L3812.81 1604.81Z" fill="#FFEBAB"/>
<path d="M3766.32 1611.94C3790.66 1626.03 3816.83 1631.89 3844.11 1633.72C3844.11 1633.72 3829.46 1606.09 3812.26 1601.51C3795.05 1596.94 3766.32 1612.13 3766.32 1612.13L3766.32 1611.94Z" fill="#76AB9F"/>
<path d="M3581.64 1620.72C3582.92 1618.89 3717.45 1430.24 3851.61 1174.62L3867.17 1182.85C3732.28 1439.76 3597.2 1629.14 3595.92 1630.97L3581.64 1620.72Z" fill="#76AB9F"/>
<path d="M3588.78 1617.61C3623.19 1635.73 3663.28 1772.41 3616.6 1780.83C3569.93 1789.25 3564.07 1746.61 3564.07 1746.61C3564.07 1746.61 3542.29 1789.25 3504.77 1770.4C3467.25 1751.55 3495.8 1709.65 3495.8 1709.65C3495.8 1709.65 3464.69 1727.22 3442.17 1700.87C3419.66 1674.52 3533.32 1588.15 3588.78 1617.43L3588.78 1617.61Z" fill="#EBDFE1"/>
<path d="M3618.07 1657.32C3589.7 1648.72 3565.9 1633.17 3544.3 1614.14C3544.3 1614.14 3575.42 1606.09 3591.71 1615.78C3608 1625.48 3618.07 1657.32 3618.07 1657.32Z" fill="#76AB9F"/>
<path d="M16.0223 1329.79L18.0356 1310.94C342.366 1344.06 582.868 1241.59 585.247 1240.49L592.935 1257.88C590.555 1258.97 345.66 1363.46 16.2055 1329.79L16.0223 1329.79Z" fill="#76AB9F"/>
<path d="M582.685 1255.86C568.592 1217.44 639.242 1080.39 683.535 1106C727.645 1131.62 700.191 1169.68 700.191 1169.68C700.191 1169.68 750.158 1150.65 766.265 1191.64C782.372 1232.62 727.646 1246.53 727.646 1246.53C727.646 1246.53 766.265 1254.22 764.618 1290.81C762.97 1327.41 605.564 1317.71 582.868 1255.86L582.685 1255.86Z" fill="#FFEBAB"/>
<path d="M588.909 1203.72C605.564 1230.25 612.886 1259.34 615.997 1289.35C615.997 1289.35 584.699 1274.16 578.842 1255.13C572.985 1236.1 588.909 1203.53 588.909 1203.53L588.909 1203.72Z" fill="#76AB9F"/>
</g>
</g>
<defs>
<filter id="filter0_dd_1_1411" x="0" y="0" width="3847" height="1789.93" filterUnits="userSpaceOnUse" color-interpolation-filters="sRGB">
<feFlood flood-opacity="0" result="BackgroundImageFix"/>
<feColorMatrix in="SourceAlpha" type="matrix" values="0 0 0 0 0 0 0 0 0 0 0 0 0 0 0 0 0 0 127 0" result="hardAlpha"/>
<feOffset dy="4"/>
<feGaussianBlur stdDeviation="2"/>
<feComposite in2="hardAlpha" operator="out"/>
<feColorMatrix type="matrix" values="0 0 0 0 0 0 0 0 0 0 0 0 0 0 0 0 0 0 0.25 0"/>
<feBlend mode="normal" in2="BackgroundImageFix" result="effect1_dropShadow_1_1411"/>
<feColorMatrix in="SourceAlpha" type="matrix" values="0 0 0 0 0 0 0 0 0 0 0 0 0 0 0 0 0 0 127 0" result="hardAlpha"/>
<feOffset dy="4"/>
<feGaussianBlur stdDeviation="2"/>
<feComposite in2="hardAlpha" operator="out"/>
<feColorMatrix type="matrix" values="0 0 0 0 0 0 0 0 0 0 0 0 0 0 0 0 0 0 0.25 0"/>
<feBlend mode="normal" in2="effect1_dropShadow_1_1411" result="effect2_dropShadow_1_1411"/>
<feBlend mode="normal" in="SourceGraphic" in2="effect2_dropShadow_1_1411" result="shape"/>
</filter>
</defs>
</svg>
